<svg preserveAspectRatio="none" overflow="visible" style="display: block;" width="22" height="22" viewBox="0 0 22 22" fill="none" xmlns="http://www.w3.org/2000/svg">
<g id="settings-2">
<path id="Vector" d="M12.8331 15.5829H4.58397M12.8331 15.5829C12.8331 17.1015 14.0642 18.3326 15.5829 18.3326C17.1015 18.3326 18.3326 17.1015 18.3326 15.5829C18.3326 14.0642 17.1015 12.8331 15.5829 12.8331C14.0642 12.8331 12.8331 14.0642 12.8331 15.5829ZM17.416 6.41712H9.16685M9.16685 6.41712C9.16685 7.93576 7.93576 9.16685 6.41712 9.16685C4.89849 9.16685 3.6674 7.93576 3.6674 6.41712C3.6674 4.89849 4.89849 3.6674 6.41712 3.6674C7.93576 3.6674 9.16685 4.89849 9.16685 6.41712Z" stroke="#6B7280" stroke-width="2" stroke-linecap="round"/>
</g>
</svg>
